<?xml version="1.0" standalone="no"?>
<!DOCTYPE svg PUBLIC "-//W3C//DTD SVG 20010904//EN"
 "http://www.w3.org/TR/2001/REC-SVG-20010904/DTD/svg10.dtd">
<svg version="1.0" xmlns="http://www.w3.org/2000/svg"
 width="500.000000pt" height="500.000000pt" viewBox="0 0 500.000000 500.000000"
 preserveAspectRatio="xMidYMid meet">

<g transform="translate(0.000000,500.000000) scale(0.100000,-0.100000)"
fill="#000000" stroke="none">
<path d="M0 2500 l0 -2500 2500 0 2500 0 0 2500 0 2500 -2500 0 -2500 0 0
-2500z m1940 650 c243 -29 340 -104 348 -268 12 -220 -159 -302 -625 -302
l-133 0 0 -115 0 -115 -170 0 -170 0 0 405 0 405 333 0 c183 0 371 -5 417 -10z
m760 -395 l0 -405 -170 0 -170 0 0 405 0 405 170 0 170 0 0 -405z m496 291
l119 -113 118 113 118 114 172 0 172 -1 -88 -82 c-48 -45 -141 -131 -206 -192
-66 -60 -120 -114 -120 -120 -1 -5 92 -101 206 -212 l208 -202 -175 0 -175 0
-110 119 c-60 66 -114 119 -120 119 -5 0 -59 -53 -120 -119 l-110 -118 -175 0
-175 -1 210 205 210 204 -85 83 c-47 45 -141 135 -210 200 l-125 117 171 0
171 0 119 -114z"/>
<path d="M1530 2871 l0 -91 103 0 c135 0 264 16 294 35 20 14 24 23 21 58 -3
35 -8 44 -37 61 -30 17 -58 21 -208 24 l-173 5 0 -92z"/>
</g>
</svg>
